HIERARCHY
ROOT Hips
{
	OFFSET 0.000000 0.000000 0.000000
	CHANNELS 6 Xposition Yposition Zposition Xrotation Yrotation Zrotation
	JOINT LeftUpLeg_virtual
	{
		OFFSET 0.000000 0.000000 0.000000
		CHANNELS 3 Xrotation Yrotation Zrotation
		JOINT LeftUpLeg
		{
			OFFSET 11.394100 -6.187798 -0.413800
			CHANNELS 3 Xrotation Yrotation Zrotation
			JOINT LeftLeg
			{
				OFFSET 0.430247 -32.302673 3.732800
				CHANNELS 3 Xrotation Yrotation Zrotation
				JOINT LeftFoot
				{
					OFFSET -0.430247 -48.264931 -6.423300
					CHANNELS 3 Xrotation Yrotation Zrotation
					JOINT LeftToeBase
					{
						OFFSET 4.230900 -16.068199 23.438400
						CHANNELS 3 Xrotation Yrotation Zrotation
						JOINT LeftToe_End
						{
							OFFSET 4.510700 0.695400 19.974600
							CHANNELS 3 Xrotation Yrotation Zrotation
							End Site
							{
								OFFSET 0 0 0
							}
						}
					}
				}
			}
		}
	}
	JOINT RightUpLeg_virtual
	{
		OFFSET 0.000000 0.000000 0.000000
		CHANNELS 3 Xrotation Yrotation Zrotation
		JOINT RightUpLeg
		{
			OFFSET -11.333700 -6.187798 -0.413800
			CHANNELS 3 Xrotation Yrotation Zrotation
			JOINT RightLeg
			{
				OFFSET -0.430392 -32.302628 3.733000
				CHANNELS 3 Xrotation Yrotation Zrotation
				JOINT RightFoot
				{
					OFFSET 0.430392 -48.264973 -6.423500
					CHANNELS 3 Xrotation Yrotation Zrotation
					JOINT RightToeBase
					{
						OFFSET -4.230900 -16.068199 23.438400
						CHANNELS 3 Xrotation Yrotation Zrotation
						JOINT RightToe_End
						{
							OFFSET -4.510700 0.695400 19.974600
							CHANNELS 3 Xrotation Yrotation Zrotation
							End Site
							{
								OFFSET 0 0 0
							}
						}
					}
				}
			}
		}
	}
	JOINT Spine_virtual
	{
		OFFSET 0.000000 0.000000 0.000000
		CHANNELS 3 Xrotation Yrotation Zrotation
		JOINT Spine
		{
			OFFSET -0.002400 12.777504 0.315300
			CHANNELS 3 Xrotation Yrotation Zrotation
			JOINT Spine1
			{
				OFFSET -0.002067 5.816869 0.032633
				CHANNELS 3 Xrotation Yrotation Zrotation
				JOINT Spine1_split
				{
					OFFSET -0.002067 5.816869 0.032633
					CHANNELS 3 Xrotation Yrotation Zrotation
					JOINT Spine2
					{
						OFFSET -0.002067 5.816869 0.032633
						CHANNELS 3 Xrotation Yrotation Zrotation
						JOINT Neck_virtual
						{
							OFFSET 0.000000 0.000000 0.000000
							CHANNELS 3 Xrotation Yrotation Zrotation
							JOINT Neck
							{
								OFFSET -0.003700 21.199493 -0.826900
								CHANNELS 3 Xrotation Yrotation Zrotation
								JOINT Head
								{
									OFFSET 0.000000 20.442200 4.834800
									CHANNELS 3 Xrotation Yrotation Zrotation
									JOINT HeadTop_End
									{
										OFFSET 0.000000 34.668396 4.968400
										CHANNELS 3 Xrotation Yrotation Zrotation
										End Site
										{
											OFFSET 0 0 0
										}
									}
								}
							}
						}
						JOINT LeftShoulder_virtual
						{
							OFFSET 0.000000 0.000000 0.000000
							CHANNELS 3 Xrotation Yrotation Zrotation
							JOINT LeftShoulder
							{
								OFFSET 3.288150 8.794197 -1.372250
								CHANNELS 3 Xrotation Yrotation Zrotation
								JOINT LeftShoulder_split
								{
									OFFSET 3.288150 8.794197 -1.372250
									CHANNELS 3 Xrotation Yrotation Zrotation
									JOINT LeftArm
									{
										OFFSET 11.953299 -2.279007 -0.146200
										CHANNELS 3 Xrotation Yrotation Zrotation
										JOINT LeftForeArm
										{
											OFFSET 18.448900 0.000000 0.000000
											CHANNELS 3 Xrotation Yrotation Zrotation
											JOINT LeftHand
											{
												OFFSET 29.527798 0.000000 0.000000
												CHANNELS 3 Xrotation Yrotation Zrotation
												End Site
												{
													OFFSET 0 0 0
												}
											}
										}
									}
								}
							}
						}
						JOINT RightShoulder_virtual
						{
							OFFSET 0.000000 0.000000 0.000000
							CHANNELS 3 Xrotation Yrotation Zrotation
							JOINT RightShoulder
							{
								OFFSET -3.249400 8.794197 -1.372250
								CHANNELS 3 Xrotation Yrotation Zrotation
								JOINT RightShoulder_split
								{
									OFFSET -3.249400 8.794197 -1.372250
									CHANNELS 3 Xrotation Yrotation Zrotation
									JOINT RightArm
									{
										OFFSET -11.953299 -2.279007 -0.146200
										CHANNELS 3 Xrotation Yrotation Zrotation
										JOINT RightForeArm
										{
											OFFSET -18.448900 0.000000 0.000000
											CHANNELS 3 Xrotation Yrotation Zrotation
											JOINT RightHand
											{
												OFFSET -29.527802 0.000000 0.000000
												CHANNELS 3 Xrotation Yrotation Zrotation
												End Site
												{
													OFFSET 0 0 0
												}
											}
										}
									}
								}
							}
						}
					}
				}
			}
		}
	}
}
MOTION
Frames: 6
Frame Time: 0.03333333
-0.188530 94.284142 0.075180 0.000000 0.000000 0.000000 -6.091895 -43.084229 -4.028249 -30.516315 4.881861 14.210182 33.530782 -13.752824 -0.448871 -0.473560 0.480464 -8.776493 -2.319077 -3.216989 0.802954 0.000000 0.000000 0.000000 -6.091895 -43.084229 -4.028249 -6.231913 -12.840599 -16.893361 32.334863 -9.211623 -0.379904 -18.030043 -3.774891 17.686929 -1.785016 -0.356702 0.333181 0.000000 0.000000 0.000000 -6.091895 -43.084229 -4.028249 5.833596 4.695187 -1.240971 11.836540 9.037612 -3.083966 0.000000 0.000000 0.000000 0.000000 0.000000 0.000000 11.836543 9.037615 -3.083968 -9.907370 -1.416033 0.452971 -0.529823 20.570694 -0.772810 0.000000 0.000000 0.000000 11.836543 9.037615 -3.083968 1.396583 -0.734465 -7.859327 0.000000 0.000000 0.000000 -14.236645 2.407731 -63.256793 9.875221 -47.538366 5.912045 0.000000 0.000000 0.000000 11.836543 9.037615 -3.083968 1.410918 9.461493 9.792763 0.000000 0.000000 0.000000 1.220068 -24.270696 60.532866 -6.660690 41.858435 8.043890 0.000000 0.000000 0.000000 
0.699660 93.346207 -0.738976 0.000000 0.000000 0.000000 -3.050115 -44.627411 -1.712493 -34.957694 4.768371 14.444609 35.832877 -12.796089 -0.316322 -0.383371 0.544592 -8.970570 -2.120710 -2.940644 0.733048 0.000000 0.000000 0.000000 -3.050115 -44.627411 -1.712493 -11.864426 -7.820572 -16.401082 37.225115 -12.424618 -0.807647 -18.515316 -3.410505 18.814664 -1.954011 -0.510385 0.392333 0.000000 0.000000 0.000000 -3.050115 -44.627411 -1.712493 6.039210 4.446980 -1.256905 12.224172 8.528413 -2.981042 0.000000 0.000000 0.000000 0.000000 0.000000 0.000000 12.224172 8.528402 -2.981035 -12.706016 0.665366 1.229650 -2.359375 22.874638 -2.642887 0.000000 0.000000 0.000000 12.224172 8.528402 -2.981035 0.265572 -1.356439 -8.721381 0.000000 0.000000 0.000000 -15.849128 -0.272488 -61.599120 11.914437 -42.970656 5.909681 0.000000 0.000000 0.000000 12.224172 8.528402 -2.981035 0.311100 10.730823 8.924907 0.000000 0.000000 0.000000 0.830489 -21.973977 60.244563 -4.994659 43.080001 7.063704 0.000000 0.000000 0.000000 
2.140394 91.905457 -1.998341 0.000000 0.000000 0.000000 1.813779 -46.091035 2.369028 -41.493877 4.277186 14.242874 38.764701 -11.353579 -0.156110 0.160186 0.599807 -9.281324 -1.899878 -2.633018 0.655217 0.000000 0.000000 0.000000 1.813779 -46.091035 2.369028 -20.749647 -3.818989 -16.823461 43.738397 -13.668828 -1.094332 -18.965666 -2.828446 19.568719 -2.254358 -0.829125 0.416645 0.000000 0.000000 0.000000 1.813779 -46.091035 2.369028 6.287835 4.029842 -1.437853 12.699074 7.684463 -3.146811 0.000000 0.000000 0.000000 0.000000 0.000000 0.000000 12.699069 7.684449 -3.146806 -17.369946 3.005137 2.119274 -3.503562 25.295355 -4.286097 0.000000 0.000000 0.000000 12.699069 7.684449 -3.146806 -0.875529 -1.769860 -10.074784 0.000000 0.000000 0.000000 -18.137853 -3.049775 -58.867529 13.873469 -38.764752 5.003140 0.000000 0.000000 0.000000 12.699069 7.684449 -3.146806 -0.838663 13.098418 8.883107 0.000000 0.000000 0.000000 -0.164342 -19.694728 59.041221 -3.226339 44.201460 6.321433 0.000000 0.000000 0.000000 
3.990377 89.247093 -3.564102 0.000000 0.000000 0.000000 8.204842 -47.098392 7.822817 -51.131435 2.791867 13.948920 44.286390 -9.467135 -0.025951 0.479753 0.651757 -9.760611 -1.663661 -2.303973 0.571973 0.000000 0.000000 0.000000 8.204842 -47.098392 7.822817 -32.855051 -0.437236 -17.649648 52.629432 -13.276483 -1.554311 -19.825731 -2.293569 20.256797 -2.459555 -1.177255 0.303396 0.000000 0.000000 0.000000 8.204842 -47.098392 7.822817 6.531474 3.501560 -1.695719 13.169148 6.618410 -3.493478 0.000000 0.000000 0.000000 0.000000 0.000000 0.000000 13.169149 6.618416 -3.493484 -22.329847 5.380598 3.884520 -4.739457 27.737878 -6.099994 0.000000 0.000000 0.000000 13.169149 6.618416 -3.493484 -2.086162 -1.814104 -11.473728 0.000000 0.000000 0.000000 -20.799868 -6.411809 -56.372304 15.798248 -34.521907 4.124773 0.000000 0.000000 0.000000 13.169149 6.618416 -3.493484 -1.942403 15.825367 9.625625 0.000000 0.000000 0.000000 -1.897452 -17.221378 57.395712 -0.791308 45.123095 4.765372 0.000000 0.000000 0.000000 
6.108377 86.045486 -5.321407 0.000000 0.000000 0.000000 15.581586 -47.214209 14.130660 -61.960771 0.579989 13.063400 49.920620 -7.001015 0.255676 1.351785 0.641423 -10.693596 -1.419166 -1.963406 0.485815 0.000000 0.000000 0.000000 15.581586 -47.214209 14.130660 -46.082156 2.810750 -18.151639 61.370370 -12.675737 -2.063526 -20.262601 -1.624357 20.678049 -2.548110 -1.589172 0.089457 0.000000 0.000000 0.000000 15.581586 -47.214209 14.130660 6.781665 2.909204 -2.030795 13.656721 5.421485 -4.034902 0.000000 0.000000 0.000000 0.000000 0.000000 0.000000 13.656721 5.421472 -4.034897 -27.810454 7.189907 6.699147 -5.437027 30.189921 -7.887642 0.000000 0.000000 0.000000 13.656721 5.421472 -4.034897 -3.021311 -1.594954 -12.831287 0.000000 0.000000 0.000000 -26.898006 -12.683003 -55.109709 15.744482 -24.195390 3.605374 0.000000 0.000000 0.000000 13.656721 5.421472 -4.034897 -2.731089 17.626302 11.069222 0.000000 0.000000 0.000000 -4.825924 -13.979223 55.763041 0.666407 46.415360 3.278769 0.000000 0.000000 0.000000 
8.261330 82.219467 -7.097103 0.000000 0.000000 0.000000 22.668623 -46.336369 20.163763 -73.523366 -1.962136 11.762579 55.874950 -4.591746 0.582742 2.608203 0.562969 -11.912405 -1.206139 -1.621403 0.339501 0.000000 0.000000 0.000000 22.668623 -46.336369 20.163763 -59.602860 6.096517 -19.067779 70.264082 -11.363541 -1.727327 -20.570971 -0.751116 20.526909 -2.511224 -2.100918 -0.167358 0.000000 0.000000 0.000000 22.668623 -46.336369 20.163763 7.048752 2.317708 -2.387447 14.177751 4.203556 -4.658907 0.000000 0.000000 0.000000 0.000000 0.000000 0.000000 14.177752 4.203516 -4.658891 -32.472949 7.741352 10.470795 -5.905827 32.942088 -9.808993 0.000000 0.000000 0.000000 14.177752 4.203516 -4.658891 -3.978999 -1.985683 -13.950886 0.000000 0.000000 0.000000 -34.223090 -20.213772 -54.758603 14.733036 -13.019766 2.508598 0.000000 0.000000 0.000000 14.177752 4.203516 -4.658891 -3.795599 18.664474 13.401181 0.000000 0.000000 0.000000 -8.858483 -10.600186 54.198876 1.083636 47.129255 2.267599 0.000000 0.000000 0.000000 
